<mxfile host="app.diagrams.net" agent="Mozilla/5.0 (Windows NT 10.0; Win64; x64) AppleWebKit/537.36 (KHTML, like Gecko) Chrome/132.0.0.0 Safari/537.36" version="26.0.10">
  <diagram name="Page-1" id="WkFeDlH5St99d2zKe_6l">
    <mxGraphModel dx="1249" dy="609" grid="1" gridSize="10" guides="1" tooltips="1" connect="1" arrows="1" fold="1" page="1" pageScale="1" pageWidth="850" pageHeight="1100" math="0" shadow="0">
      <root>
        <mxCell id="0" />
        <mxCell id="1" parent="0" />
        <mxCell id="hjE5A_oMcKAvzAcHrhil-7" value="" style="swimlane;startSize=0;" vertex="1" parent="1">
          <mxGeometry x="240" y="387.5" width="210" height="200" as="geometry" />
        </mxCell>
        <mxCell id="hjE5A_oMcKAvzAcHrhil-6" value="Sql server on EC2 instance&amp;nbsp;" style="rounded=0;whiteSpace=wrap;html=1;" vertex="1" parent="hjE5A_oMcKAvzAcHrhil-7">
          <mxGeometry x="40" y="40" width="120" height="50" as="geometry" />
        </mxCell>
        <mxCell id="hjE5A_oMcKAvzAcHrhil-13" style="edgeStyle=orthogonalEdgeStyle;rounded=0;orthogonalLoop=1;jettySize=auto;html=1;exitX=0.5;exitY=0;exitDx=0;exitDy=0;entryX=0.5;entryY=1;entryDx=0;entryDy=0;" edge="1" parent="hjE5A_oMcKAvzAcHrhil-7" source="hjE5A_oMcKAvzAcHrhil-11" target="hjE5A_oMcKAvzAcHrhil-6">
          <mxGeometry relative="1" as="geometry" />
        </mxCell>
        <mxCell id="hjE5A_oMcKAvzAcHrhil-11" value="Amazon EBS (file Storeage)" style="rounded=0;whiteSpace=wrap;html=1;" vertex="1" parent="hjE5A_oMcKAvzAcHrhil-7">
          <mxGeometry x="40" y="130" width="120" height="60" as="geometry" />
        </mxCell>
        <mxCell id="hjE5A_oMcKAvzAcHrhil-10" value="Private subnet" style="text;html=1;align=center;verticalAlign=middle;resizable=0;points=[];autosize=1;strokeColor=none;fillColor=none;" vertex="1" parent="1">
          <mxGeometry x="280" y="370" width="100" height="30" as="geometry" />
        </mxCell>
        <mxCell id="hjE5A_oMcKAvzAcHrhil-26" style="edgeStyle=orthogonalEdgeStyle;rounded=0;orthogonalLoop=1;jettySize=auto;html=1;exitX=1;exitY=0.5;exitDx=0;exitDy=0;" edge="1" parent="1" source="hjE5A_oMcKAvzAcHrhil-14">
          <mxGeometry relative="1" as="geometry">
            <mxPoint x="650" y="630" as="targetPoint" />
          </mxGeometry>
        </mxCell>
        <mxCell id="hjE5A_oMcKAvzAcHrhil-27" style="edgeStyle=orthogonalEdgeStyle;rounded=0;orthogonalLoop=1;jettySize=auto;html=1;exitX=0.5;exitY=0;exitDx=0;exitDy=0;entryX=0.5;entryY=1;entryDx=0;entryDy=0;" edge="1" parent="1" source="hjE5A_oMcKAvzAcHrhil-14" target="hjE5A_oMcKAvzAcHrhil-7">
          <mxGeometry relative="1" as="geometry" />
        </mxCell>
        <mxCell id="hjE5A_oMcKAvzAcHrhil-14" value="Amazon Webmail" style="rounded=0;whiteSpace=wrap;html=1;" vertex="1" parent="1">
          <mxGeometry x="320" y="660" width="120" height="60" as="geometry" />
        </mxCell>
        <mxCell id="hjE5A_oMcKAvzAcHrhil-15" value="E2 Instance (Elastic Beanstalk Web App)" style="rounded=0;whiteSpace=wrap;html=1;" vertex="1" parent="1">
          <mxGeometry x="600" y="440" width="120" height="60" as="geometry" />
        </mxCell>
        <mxCell id="hjE5A_oMcKAvzAcHrhil-29" style="edgeStyle=orthogonalEdgeStyle;rounded=0;orthogonalLoop=1;jettySize=auto;html=1;exitX=0;exitY=0.5;exitDx=0;exitDy=0;entryX=0;entryY=0.25;entryDx=0;entryDy=0;" edge="1" parent="1" source="hjE5A_oMcKAvzAcHrhil-16" target="hjE5A_oMcKAvzAcHrhil-15">
          <mxGeometry relative="1" as="geometry" />
        </mxCell>
        <mxCell id="hjE5A_oMcKAvzAcHrhil-31" style="edgeStyle=orthogonalEdgeStyle;rounded=0;orthogonalLoop=1;jettySize=auto;html=1;exitX=0;exitY=0.5;exitDx=0;exitDy=0;entryX=1;entryY=0.5;entryDx=0;entryDy=0;" edge="1" parent="1" source="hjE5A_oMcKAvzAcHrhil-16" target="hjE5A_oMcKAvzAcHrhil-6">
          <mxGeometry relative="1" as="geometry" />
        </mxCell>
        <mxCell id="hjE5A_oMcKAvzAcHrhil-16" value="" style="swimlane;startSize=0;" vertex="1" parent="1">
          <mxGeometry x="570" y="380" width="200" height="200" as="geometry" />
        </mxCell>
        <mxCell id="hjE5A_oMcKAvzAcHrhil-18" value="Private subnet" style="text;html=1;align=center;verticalAlign=middle;resizable=0;points=[];autosize=1;strokeColor=none;fillColor=none;" vertex="1" parent="hjE5A_oMcKAvzAcHrhil-16">
          <mxGeometry x="10" y="10" width="100" height="30" as="geometry" />
        </mxCell>
        <mxCell id="hjE5A_oMcKAvzAcHrhil-23" style="edgeStyle=orthogonalEdgeStyle;rounded=0;orthogonalLoop=1;jettySize=auto;html=1;exitX=0.5;exitY=0;exitDx=0;exitDy=0;" edge="1" parent="1" source="hjE5A_oMcKAvzAcHrhil-21">
          <mxGeometry relative="1" as="geometry">
            <mxPoint x="670" y="290" as="targetPoint" />
          </mxGeometry>
        </mxCell>
        <mxCell id="hjE5A_oMcKAvzAcHrhil-21" value="" style="swimlane;startSize=0;" vertex="1" parent="1">
          <mxGeometry x="560" y="355" width="230" height="265" as="geometry" />
        </mxCell>
        <mxCell id="hjE5A_oMcKAvzAcHrhil-22" value="VPC" style="text;html=1;align=center;verticalAlign=middle;resizable=0;points=[];autosize=1;strokeColor=none;fillColor=none;" vertex="1" parent="1">
          <mxGeometry x="575" y="348" width="50" height="30" as="geometry" />
        </mxCell>
        <mxCell id="hjE5A_oMcKAvzAcHrhil-24" value="" style="image;aspect=fixed;perimeter=ellipsePerimeter;html=1;align=center;shadow=0;dashed=0;spacingTop=3;image=img/lib/active_directory/internet_globe.svg;" vertex="1" parent="1">
          <mxGeometry x="650" y="240" width="50" height="50" as="geometry" />
        </mxCell>
        <mxCell id="hjE5A_oMcKAvzAcHrhil-25" value="HTTPS port exposed" style="text;html=1;align=center;verticalAlign=middle;resizable=0;points=[];autosize=1;strokeColor=none;fillColor=none;" vertex="1" parent="1">
          <mxGeometry x="630" y="308" width="140" height="30" as="geometry" />
        </mxCell>
        <mxCell id="hjE5A_oMcKAvzAcHrhil-32" value="API" style="text;html=1;align=center;verticalAlign=middle;resizable=0;points=[];autosize=1;strokeColor=none;fillColor=none;" vertex="1" parent="1">
          <mxGeometry x="500" y="448" width="40" height="30" as="geometry" />
        </mxCell>
        <mxCell id="hjE5A_oMcKAvzAcHrhil-33" value="Port: 1433" style="text;html=1;align=center;verticalAlign=middle;resizable=0;points=[];autosize=1;strokeColor=none;fillColor=none;" vertex="1" parent="1">
          <mxGeometry x="430" y="428" width="80" height="30" as="geometry" />
        </mxCell>
      </root>
    </mxGraphModel>
  </diagram>
</mxfile>
